<?xml version="1.0" encoding="UTF-8"?>
<svg id="The_Designer" data-name="The Designer" xmlns="http://www.w3.org/2000/svg" viewBox="0 0 610.03 548.29">
  <defs>
    <style>
      .cls-1 {
        fill: #fff;
        stroke: #fff;
      }

      .cls-1, .cls-2 {
        stroke-miterlimit: 10;
        stroke-width: .5px;
      }

      .cls-2 {
        fill: #f89938;
        stroke: #f7941d;
      }
    </style>
  </defs>
  <g>
    <path class="cls-1" d="M80.37,207.64V109.78h-13.49v-2.4h57.4v2.4h-8.99v67.59c0,16.34-12.74,35.67-42.26,35.67-16.64,0-34.77-10.19-34.77-24.13,0-5.1,.9-5.84,5.4-5.84h25.03v27.28c1.2,.15,2.55,.3,4.35,.3,4.35,0,7.34-1.05,7.34-3Z"/>
    <path class="cls-1" d="M162.95,207.79c-4.5,2.1-9.29,3-18.58,3-14.99-.45-20.83-5.55-20.83-14.84,0-8.69,7.19-14.39,17.53-16.79,7.94-1.8,15.14-3.3,21.88-4.65v-19.93c0-6-.45-6.29-2.25-6.29s-2.85,0-5.25,.15v22.33h-21.43c-3.75,0-4.65-.6-4.65-5.7,0-10.79,12.44-19.03,31.32-19.03s31.47,9.44,31.47,21.58v39.27h3v2.4h-32.22v-1.5Zm-6.89-.45c1.05,0,3.3-.3,6.89-1.95v-28.33c-3,.6-4.5,.9-6,1.2-1.35,.3-1.65,.45-1.65,3v25.48c0,.45,.3,.6,.75,.6Z"/>
    <path class="cls-1" d="M238.49,150.99c-4.8-2.7-9.74-4.35-14.24-4.35-7.49,0-9.74,2.7-9.74,3.3,0,.9,.6,1.35,3,2.85l31.77,17.39c4.65,2.4,8.39,8.54,8.39,17.24,0,13.79-9.74,23.98-22.63,23.98-5.25,0-10.64-1.5-15.29-3.75l-17.08,1.35h-1.2v-20.98h1.8l13.64,15.44c5.25,3.15,11.69,5.54,18.13,5.54,5.7,0,9.89-2.7,9.89-4.65,0-.6-.75-1.2-3.45-2.7l-31.62-16.64c-3.6-1.8-8.39-7.49-8.39-17.38,0-12.74,8.39-23.23,22.78-23.23,3.9,0,8.39,1.2,12.74,3.15l14.24-1.5h1.05l.45,20.38h-1.95l-12.29-15.44Z"/>
    <path class="cls-1" d="M301.74,209.29h-39.12v-2.4h4.8v-57.55h-4.8v-2.4h15.89l18.13-1.5v9.14c10.64-6,16.34-8.09,21.88-8.09,6.89,0,13.64,3.3,17.54,8.99,12.89-7.19,17.83-8.99,23.38-8.99,10.34,0,19.18,9.14,19.18,17.83v42.56h4.8v2.4h-39.12v-2.4h5.1v-52.6c0-1.8-.45-2.1-.9-2.1-.9,0-2.85,.75-10.94,5.25v49.46h4.95v2.4h-38.97v-2.4h4.8v-52.6c0-1.65-.3-2.1-.9-2.1-1.05,0-3.9,1.35-10.79,5.1v49.61h5.1v2.4Z"/>
    <path class="cls-1" d="M421.03,206.89h5.1v2.4h-39.12v-2.4h4.8v-57.55h-4.8v-2.4h15.74l18.28-1.5v61.45Zm-27.88-83.63c0-7.79,6-12.89,13.19-12.89s13.19,5.1,13.19,12.89-6,13.04-13.19,13.04-13.19-5.1-13.19-13.04Z"/>
    <path class="cls-1" d="M471.69,206.89h5.25v-53.65c0-2.25-.45-3.15-3-3.15-1.65,0-4.35,.6-10.19,2.25v54.55h5.25v2.4h-39.27v-2.4h4.8v-57.55h-4.8v-2.4h15.89l18.13-1.5v4.35c9.74-2.7,12.74-3.3,15.89-3.3,17.24,0,26.53,10.94,26.53,22.03v38.37h4.8v2.4h-39.27v-2.4Z"/>
  </g>
  <circle class="cls-2" cx="556.48" cy="194.35" r="18.73"/>
  <g>
    <path class="cls-1" d="M67.78,272.89v1.35h-11.17v49.38h-6.44v-49.38h-11.17v-1.35h28.78Z"/>
    <path class="cls-1" d="M79.85,298v25.63h-6.44v-50.73h6.44v23.75h14.39v-23.75h6.44v50.73h-6.44v-25.63h-14.39Z"/>
    <path class="cls-1" d="M132.9,323.62h-22.48v-50.73h21.06v1.35h-14.61v22.93h11.76v1.35h-11.76v23.75h16.04v1.35Z"/>
    <path class="cls-1" d="M169.77,272.89c18.21,0,27.5,8.47,27.5,25.48,0,15.96-10.12,25.25-28.78,25.25h-14.16v-50.73h15.44Zm-1.95,49.38c15.06,0,22.11-9.74,22.11-23.9,0-15.44-7.57-24.13-21.96-24.13h-7.19v48.03h7.04Z"/>
    <path class="cls-1" d="M227.54,323.62h-22.48v-50.73h21.06v1.35h-14.61v22.93h11.76v1.35h-11.76v23.75h16.04v1.35Z"/>
    <path class="cls-1" d="M251.22,275.22c-2.4-1.12-4.65-1.72-7.27-1.65-4.57,0-7.42,2.85-7.42,7.64,0,5.47,3,9.07,8.02,14.09,6.82,6.82,9.14,10.12,9.14,16.49,0,7.64-4.57,12.59-13.04,12.59-2.77,0-6.67-.75-9.67-2.62l.6-1.05c3.15,1.8,6.14,2.32,8.99,2.32,4.57,0,7.72-1.87,7.79-7.57,0-5.1-1.95-8.24-8.02-14.09-5.47-5.32-9.14-9.82-9.14-16.79,0-7.72,5.25-12.36,12.59-12.36,2.92,0,5.62,.67,7.94,1.87l-.52,1.12Z"/>
    <path class="cls-1" d="M260.67,323.62v-50.73h6.44v50.73h-6.44Z"/>
    <path class="cls-1" d="M304.05,298.6v23.83c-3.9,1.42-7.64,2.25-11.24,2.25-11.17,0-17.76-7.87-17.76-25.63,0-22.11,9.89-27.2,18.51-27.2,4.27,0,7.12,1.35,9.22,2.62l-.6,.82c-2.02-1.05-4.42-1.95-7.64-1.95-6,0-12.44,3.6-12.44,25.18,0,14.99,3.22,24.65,11.84,24.65,1.12,0,2.4-.15,3.67-.45v-22.78h-5.92v-1.35h12.36Z"/>
    <path class="cls-1" d="M336.95,272.89v50.73h-6.67l-16.64-42.71v42.71h-1.5v-46.01l-1.87-4.72h6.82l18.36,46.76v-46.76h1.5Z"/>
    <path class="cls-1" d="M369.17,323.62h-22.48v-50.73h21.06v1.35h-14.61v22.93h11.76v1.35h-11.76v23.75h16.04v1.35Z"/>
    <path class="cls-1" d="M401.1,323.62h-6.89l-3.75-16.94c-1.42-5.7-3.6-8.24-6.74-8.24h-2.25v25.18h-6.44v-50.73h10.72c9.14,0,12.96,5.4,12.96,11.99,0,8.02-5.1,12.21-11.39,12.96,4.72,.82,8.09,3.67,9.59,9.52l4.2,16.26Zm-19.63-26.53h3c4.35,0,7.27-3.52,7.27-11.69,0-6.37-1.42-11.17-7.19-11.17h-3.07v22.86Z"/>
  </g>
</svg>