<?xml version="1.0" encoding="utf-8"?>
<!-- Generator: Adobe Illustrator 27.0.1, SVG Export Plug-In . SVG Version: 6.00 Build 0)  -->
<svg version="1.1" id="Layer_1" xmlns="http://www.w3.org/2000/svg" xmlns:xlink="http://www.w3.org/1999/xlink" x="0px" y="0px"
	 viewBox="0 0 35.3 35.3" style="enable-background:new 0 0 35.3 35.3;" xml:space="preserve">
<style type="text/css">
	.st0{fill:#B07E09;}
	.st1{stroke:#B07E09;stroke-width:0.5;stroke-miterlimit:10;}
</style>
<g>
	<path class="st0" d="M24,16.1c-2.1,0-2.3,2.1-2.3,2.1H26C26,18.1,26,16.1,24,16.1z"/>
	<path class="st0" d="M14,18.1h-3.9v3.6h3.4c0.1,0,0.1,0,0.2,0c0.6,0,1.6-0.2,1.6-1.7C15.4,18.1,14,18.1,14,18.1z"/>
	<path class="st1" d="M17.7,1.7c-8.8,0-16,7.2-16,16s7.2,16,16,16s16-7.2,16-16C33.7,8.8,26.5,1.7,17.7,1.7z M21,11.5h5.5v1.6H21
		V11.5z M18.3,20.1c0,4.1-4.2,3.9-4.2,3.9h-3.9H10H7.1V10.7H10h0.1H14c2.1,0,3.8,1.2,3.8,3.6s-2,2.5-2,2.5
		C18.4,16.8,18.3,20.1,18.3,20.1z M28.6,19.9h-6.9c0,2.5,2.3,2.3,2.3,2.3c2.2,0,2.1-1.4,2.1-1.4h2.4c0,3.8-4.6,3.6-4.6,3.6
		c-5.5,0-5.1-5.1-5.1-5.1s0-5.1,5.1-5.1C29.3,14.1,28.6,19.9,28.6,19.9z"/>
	<path class="st0" d="M15,14.5c0-1.4-0.9-1.4-0.9-1.4h-0.5h-3.4v3h3.6C14.4,16.1,15,15.9,15,14.5z"/>
</g>
</svg>
