<?xml version="1.0" encoding="utf-8"?>
<!-- Generator: Adobe Illustrator 27.0.1, SVG Export Plug-In . SVG Version: 6.00 Build 0)  -->
<svg version="1.1" id="Layer_1" xmlns="http://www.w3.org/2000/svg" xmlns:xlink="http://www.w3.org/1999/xlink" x="0px" y="0px"
	 viewBox="0 0 34.9 34.9" style="enable-background:new 0 0 34.9 34.9;" xml:space="preserve">
<style type="text/css">
	.st0{display:none;fill:#B07E09;}
	.st1{stroke:#B07E09;stroke-width:0.5;stroke-miterlimit:10;}
</style>
<circle class="st0" cx="17.4" cy="17.4" r="13.9"/>
<g id="OUTLINE_copy_2">
	<g>
		<path class="st1" d="M17.4,1.4c-8.8,0-16,7.2-16,16c0,8.8,7.2,16,16,16s16-7.2,16-16C33.4,8.6,26.3,1.4,17.4,1.4z M13.3,23.7H10
			v-9.8h3.3V23.7z M11.7,12.6L11.7,12.6c-1.1,0-1.8-0.8-1.8-1.7c0-1,0.7-1.7,1.8-1.7s1.8,0.7,1.8,1.7C13.5,11.8,12.8,12.6,11.7,12.6
			z M25.1,23.7L25.1,23.7h-3.3v-5.3c0-1.3-0.5-2.2-1.7-2.2c-0.9,0-1.4,0.6-1.7,1.2c-0.1,0.2-0.1,0.5-0.1,0.8v5.5h-3.3
			c0,0,0-8.9,0-9.8h3.3v1.4c0.4-0.7,1.2-1.6,2.9-1.6c2.1,0,3.8,1.4,3.8,4.4C25.1,18.1,25.1,23.7,25.1,23.7z"/>
	</g>
</g>
</svg>
